<?xml version="1.0" standalone="no"?>
<!DOCTYPE svg PUBLIC "-//W3C//DTD SVG 20010904//EN"
 "http://www.w3.org/TR/2001/REC-SVG-20010904/DTD/svg10.dtd">
<svg version="1.0" xmlns="http://www.w3.org/2000/svg"
 width="984.000000pt" height="984.000000pt" viewBox="0 0 984.000000 984.000000"
 preserveAspectRatio="xMidYMid meet">
<metadata>
Created by potrace 1.14, written by Peter Selinger 2001-2017
</metadata>
<g transform="translate(0.000000,984.000000) scale(0.100000,-0.100000)"
fill="#000000" stroke="none">
<path d="M5100 9833 c-45 -18 -66 -26 -77 -29 -21 -4 -94 -78 -118 -119 -40
-68 -42 -83 -51 -450 -3 -154 -7 -305 -8 -335 -4 -116 22 -188 94 -261 114
-116 311 -115 429 3 48 48 81 113 86 170 2 24 4 43 5 43 2 0 12 499 13 610 0
61 -2 124 -5 140 -15 78 -97 177 -175 210 -40 17 -167 29 -193 18z"/>
<path d="M1578 8901 c-71 -23 -139 -85 -175 -159 -22 -45 -27 -69 -27 -131 1
-127 22 -159 254 -371 56 -52 127 -118 156 -147 30 -28 54 -50 54 -49 0 2 24
-20 53 -48 89 -85 110 -101 164 -124 105 -45 236 -22 327 58 30 27 65 76 71
100 1 3 5 12 8 20 17 41 25 129 13 148 -4 7 -5 12 -1 12 3 0 -1 16 -9 35 -9
20 -15 38 -15 40 0 8 -51 91 -51 84 0 -3 -28 22 -63 55 -35 34 -105 99 -156
146 -51 47 -120 111 -154 143 -113 107 -182 163 -220 181 -58 27 -160 30 -229
7z"/>
<path d="M7992 8755 c-43 -13 -76 -32 -113 -63 -21 -17 -89 -108 -89 -117 0
-3 -18 -30 -40 -60 -22 -30 -40 -59 -40 -65 0 -5 -3 -10 -8 -10 -4 0 -12 -9
-17 -19 -18 -36 -128 -196 -137 -199 -4 -2 -8 -8 -8 -14 0 -5 -24 -44 -53 -86
-63 -91 -76 -121 -82 -178 -3 -24 -6 -47 -7 -51 -5 -18 14 -91 34 -131 19 -38
42 -65 99 -117 9 -8 23 -15 32 -15 10 0 17 -4 17 -9 0 -23 163 -35 215 -16 50
19 85 38 85 47 0 4 5 8 11 8 11 0 78 70 79 81 0 4 39 65 88 137 48 71 92 136
97 145 51 79 110 163 117 165 4 2 8 8 8 13 0 5 17 35 39 67 67 100 84 198 51
297 -50 152 -222 239 -378 190z"/>
<path d="M4648 8095 c-1 -2 -37 -6 -78 -9 -75 -5 -142 -13 -190 -22 -14 -3
-38 -7 -54 -9 -15 -2 -35 -7 -45 -9 -9 -3 -32 -8 -51 -11 -19 -3 -53 -11 -75
-16 -22 -6 -47 -13 -55 -14 -8 -2 -46 -13 -85 -25 -38 -13 -74 -23 -80 -25 -5
-1 -17 -5 -25 -8 -8 -4 -53 -20 -100 -37 -108 -39 -409 -187 -430 -211 -3 -3
-12 -8 -20 -11 -29 -11 -236 -161 -320 -232 -71 -60 -261 -246 -295 -288 -6
-7 -35 -43 -65 -80 -82 -99 -85 -103 -175 -238 -66 -100 -178 -305 -180 -330
0 -3 -3 -10 -7 -15 -24 -38 -151 -391 -163 -454 -2 -12 -6 -25 -9 -29 -3 -5
-8 -22 -10 -38 -3 -16 -8 -39 -11 -51 -32 -144 -44 -212 -62 -378 -14 -125 -6
-565 12 -655 3 -14 8 -45 11 -70 3 -25 8 -54 10 -65 3 -11 9 -42 14 -70 15
-74 16 -81 49 -200 17 -61 37 -127 46 -148 8 -20 16 -40 16 -44 4 -24 45 -131
81 -211 15 -34 28 -65 28 -67 0 -6 68 -143 107 -215 44 -83 62 -113 131 -217
34 -52 62 -98 62 -103 0 -5 4 -10 8 -12 4 -1 40 -46 79 -98 40 -52 83 -107 95
-122 13 -15 39 -46 58 -69 45 -54 60 -71 123 -143 29 -33 59 -69 67 -80 8 -12
20 -27 27 -34 31 -32 148 -220 201 -324 74 -144 100 -204 166 -377 30 -79 68
-160 86 -183 76 -99 198 -152 331 -143 41 2 85 7 99 10 24 6 48 9 123 19 17 3
50 8 72 11 22 4 56 9 75 10 19 2 35 4 35 5 0 2 24 6 80 14 28 3 61 8 75 10 14
3 45 7 70 11 25 4 54 8 65 10 11 2 38 5 61 8 40 5 79 12 139 22 17 3 48 8 70
11 22 2 49 6 60 7 11 2 45 7 75 12 30 4 64 9 75 12 11 2 40 6 65 9 63 7 105
12 105 14 0 3 39 9 85 14 25 3 54 7 65 10 11 2 43 7 70 10 28 4 61 9 75 11 14
3 42 7 63 10 20 3 54 7 75 10 20 3 48 7 62 10 14 3 45 8 70 10 25 3 56 7 70
10 23 5 69 12 130 20 39 6 130 15 185 19 59 5 106 21 155 51 48 30 129 111
139 140 2 6 16 28 30 49 14 22 35 54 46 72 11 18 28 43 38 56 14 19 102 143
222 313 17 24 38 53 47 66 42 58 179 252 238 339 36 52 68 97 72 100 4 3 13
17 20 30 8 14 39 63 69 110 106 162 299 513 299 545 0 4 11 29 24 55 41 82
128 351 152 470 3 14 7 33 10 42 3 10 7 30 10 45 2 16 7 39 10 53 3 14 8 39 9
55 2 17 6 44 9 60 6 30 15 109 21 200 12 155 0 476 -21 578 -2 12 -7 39 -9 59
-3 20 -12 68 -20 105 -9 37 -18 79 -21 93 -29 136 -100 360 -143 455 -5 11
-24 52 -42 90 -19 39 -34 72 -34 75 0 3 -3 10 -7 15 -3 6 -18 33 -34 60 -60
108 -67 121 -85 147 -11 14 -19 31 -19 36 0 6 -3 12 -7 14 -5 2 -28 32 -53 68
-43 63 -55 78 -94 123 -10 12 -30 38 -44 57 -80 106 -372 372 -543 492 -67 48
-148 98 -157 98 -6 0 -12 3 -14 8 -1 4 -21 16 -43 27 -22 11 -42 23 -45 26 -9
12 -273 136 -365 172 -101 39 -279 98 -310 103 -11 1 -21 3 -22 4 -2 2 -7 4
-13 5 -5 1 -11 3 -12 4 -2 2 -12 4 -24 6 -11 3 -58 13 -105 23 -46 11 -91 20
-99 20 -8 0 -26 3 -40 7 -14 3 -45 8 -70 11 -25 3 -58 7 -75 10 -16 3 -46 7
-65 10 -42 5 -497 14 -502 9z m462 -559 c30 -3 64 -8 75 -10 11 -3 47 -8 80
-12 33 -3 68 -10 78 -15 9 -6 17 -8 17 -5 0 7 163 -31 220 -52 20 -7 32 -10
50 -15 8 -2 23 -7 32 -11 9 -4 22 -9 30 -10 7 -2 26 -8 41 -14 16 -7 31 -12
34 -12 3 0 21 -7 41 -16 21 -9 57 -25 82 -36 80 -35 175 -83 193 -97 9 -8 17
-11 17 -7 0 4 20 -7 44 -24 25 -16 47 -30 50 -30 9 0 101 -64 104 -72 2 -4 10
-8 18 -8 8 0 14 -4 14 -10 0 -5 5 -10 11 -10 5 0 24 -13 42 -30 18 -16 35 -30
39 -30 18 0 223 -200 299 -290 29 -36 56 -67 59 -70 3 -3 17 -21 30 -40 13
-19 27 -37 30 -40 10 -8 106 -162 134 -215 15 -27 31 -57 36 -65 9 -16 49
-103 81 -176 10 -24 16 -44 13 -44 -2 0 1 -10 8 -22 7 -13 13 -25 14 -28 0 -3
3 -12 6 -20 21 -54 66 -218 75 -275 7 -40 11 -60 13 -60 1 0 3 -13 5 -30 2
-16 6 -43 9 -60 29 -166 27 -491 -4 -675 -6 -36 -13 -77 -15 -93 -19 -121 -94
-358 -156 -492 -13 -27 -24 -52 -24 -55 0 -3 -9 -21 -20 -40 -11 -19 -19 -37
-20 -41 0 -4 -74 -134 -162 -284 -10 -16 -21 -31 -25 -33 -5 -2 -8 -10 -8 -17
0 -7 -3 -15 -7 -17 -8 -3 -104 -143 -112 -162 -2 -5 -10 -16 -17 -25 -7 -9
-65 -89 -128 -178 -63 -90 -120 -169 -126 -175 -6 -7 -48 -67 -95 -133 -46
-66 -89 -125 -94 -131 -7 -9 -162 -242 -167 -252 -2 -4 -31 -9 -97 -16 -31 -4
-96 -13 -144 -21 -47 -8 -89 -14 -92 -13 -3 0 -8 -1 -11 -2 -10 -3 -36 -8
-120 -19 -47 -6 -96 -13 -110 -15 -89 -15 -223 -35 -280 -41 -19 -2 -35 -4
-35 -5 0 -3 -80 -12 -110 -14 -16 0 -33 -5 -36 -9 -3 -4 -27 -8 -52 -9 -26 0
-47 -5 -47 -10 0 -5 -5 -6 -10 -3 -8 5 -106 -6 -184 -21 -10 -2 -39 -6 -65 -9
-79 -11 -95 -14 -128 -20 -18 -3 -52 -8 -75 -10 -24 -3 -54 -7 -68 -10 -14 -4
-41 -8 -60 -9 -19 -2 -64 -8 -100 -15 -36 -6 -81 -13 -100 -15 -19 -3 -51 -7
-70 -10 -19 -3 -51 -8 -70 -10 -19 -3 -45 -7 -58 -10 -17 -4 -25 1 -32 17 -5
12 -30 76 -55 142 -72 185 -188 410 -271 528 -19 26 -34 51 -34 56 0 5 -4 11
-8 13 -4 2 -27 29 -49 61 -23 32 -71 91 -107 130 -35 40 -74 83 -85 97 -12 14
-31 36 -43 50 -62 72 -278 377 -278 394 0 2 -18 34 -41 72 -41 67 -143 274
-172 349 -15 39 -29 75 -32 85 -1 3 -4 12 -8 20 -18 44 -70 240 -81 305 -2 11
-9 47 -15 80 -39 219 -47 522 -17 695 13 71 28 172 29 188 0 6 4 12 9 12 5 0
7 4 4 8 -6 10 12 86 48 202 15 47 28 90 29 95 4 13 41 111 58 150 7 17 13 32
14 35 12 39 140 279 155 290 4 3 13 16 20 29 20 38 102 146 179 235 56 65 195
199 261 251 28 22 56 45 63 51 6 6 37 27 67 47 30 20 60 41 66 46 22 18 190
111 201 111 6 0 13 4 15 8 4 9 168 84 193 87 6 1 22 7 37 13 43 18 220 71 257
77 19 3 37 8 41 10 4 2 26 7 50 10 23 3 45 7 49 9 6 4 84 14 165 21 21 2 40 6
43 8 6 6 387 0 453 -7z"/>
<path d="M9069 5946 c-2 -2 -40 -7 -84 -11 -44 -4 -100 -9 -125 -12 -25 -2
-61 -6 -80 -8 -94 -10 -139 -15 -180 -20 -25 -3 -67 -8 -95 -11 -57 -6 -114
-22 -132 -37 -7 -5 -13 -6 -13 -3 0 8 -21 -8 -70 -57 -121 -119 -114 -319 15
-440 30 -28 100 -65 139 -73 26 -6 165 -6 174 0 6 3 35 7 187 21 28 3 66 7 85
10 19 2 62 7 95 11 33 3 71 7 85 8 14 2 56 6 93 10 158 17 237 67 294 184 72
151 8 328 -147 405 -36 17 -65 22 -141 24 -53 1 -98 1 -100 -1z"/>
<path d="M1157 5634 c-1 -1 -99 -5 -217 -8 -300 -9 -343 -12 -387 -28 -44 -15
-45 -15 -100 -64 -64 -54 -101 -139 -101 -228 0 -38 4 -77 8 -86 5 -8 16 -32
25 -53 28 -65 112 -133 200 -163 24 -8 85 -11 85 -4 0 3 48 6 108 6 137 2 524
14 579 19 121 10 221 84 263 193 63 167 -18 345 -185 403 -32 11 -268 22 -278
13z"/>
<path d="M6289 1816 c-2 -2 -24 -6 -49 -10 -25 -3 -60 -8 -78 -10 -18 -3 -52
-8 -75 -11 -23 -3 -69 -10 -102 -16 -33 -5 -73 -11 -90 -13 -41 -5 -115 -16
-145 -21 -14 -2 -45 -7 -70 -10 -25 -3 -52 -8 -60 -10 -8 -2 -39 -7 -69 -10
-30 -4 -63 -9 -75 -11 -12 -3 -37 -7 -56 -9 -19 -2 -48 -6 -65 -8 -69 -12
-173 -27 -210 -31 -22 -3 -40 -5 -40 -6 0 -3 -37 -9 -90 -15 -27 -4 -63 -9
-80 -12 -16 -3 -41 -6 -55 -8 -33 -4 -107 -15 -145 -22 -16 -3 -41 -6 -55 -8
-14 -1 -38 -5 -55 -8 -16 -3 -50 -9 -75 -12 -25 -3 -54 -7 -66 -9 -12 -2 -45
-7 -74 -11 -29 -4 -62 -9 -74 -11 -12 -3 -41 -7 -66 -10 -25 -2 -56 -7 -70 -9
-14 -2 -56 -9 -95 -15 -38 -5 -81 -12 -94 -15 -14 -2 -45 -7 -70 -10 -25 -3
-59 -8 -76 -11 -16 -3 -43 -7 -60 -9 -102 -13 -131 -19 -136 -27 -12 -18 -1
-122 21 -208 22 -87 26 -103 35 -142 4 -19 13 -59 21 -90 1 -5 3 -11 4 -15 1
-5 2 -11 1 -15 0 -4 9 -28 21 -55 12 -26 20 -50 19 -52 -7 -10 27 -20 54 -16
17 3 46 7 65 10 19 2 46 7 60 10 14 3 45 8 70 11 47 5 97 12 140 19 14 2 41 6
60 9 19 3 53 8 75 11 22 4 51 8 65 10 38 6 92 15 120 20 14 2 49 7 79 10 30 4
63 9 75 11 11 2 38 6 61 9 67 10 88 13 130 20 22 3 54 8 70 10 17 2 73 10 125
19 52 8 118 18 145 21 28 4 61 8 75 11 14 2 43 6 65 9 22 3 51 7 65 10 29 5
56 9 165 25 83 12 103 15 170 26 22 4 51 8 65 9 14 2 25 4 25 5 0 1 17 3 38 5
21 2 53 6 70 9 18 3 50 8 72 11 22 4 51 8 65 11 14 2 45 7 70 10 127 17 123
16 137 64 13 44 18 72 29 155 5 37 8 195 4 213 -1 4 -2 55 -2 115 0 59 -1 107
-3 107 -1 0 -4 -2 -6 -4z"/>
<path d="M6020 670 c-25 -4 -65 -11 -90 -15 -25 -3 -56 -8 -70 -10 -14 -2 -43
-6 -65 -10 -23 -3 -52 -8 -65 -10 -14 -3 -47 -7 -75 -10 -27 -3 -61 -7 -75
-10 -52 -10 -96 -17 -120 -20 -14 -1 -45 -6 -70 -10 -61 -10 -78 -12 -130 -19
-50 -7 -105 -15 -135 -20 -11 -2 -40 -6 -65 -10 -76 -11 -124 -18 -145 -22
-10 -2 -37 -6 -60 -9 -22 -4 -51 -8 -65 -10 -14 -2 -61 -9 -104 -15 -44 -7
-93 -14 -110 -17 -17 -2 -44 -6 -61 -8 -38 -4 -104 -14 -130 -20 -11 -2 -42
-7 -70 -10 -27 -4 -61 -8 -75 -11 -14 -2 -41 -7 -60 -10 -73 -11 -83 -13 -87
-18 -4 -4 27 -35 102 -101 42 -37 185 -131 213 -140 12 -3 22 -11 22 -16 0 -5
3 -8 8 -7 4 1 21 -4 37 -11 154 -66 283 -93 455 -96 399 -8 758 160 1040 485
39 45 110 147 110 159 0 6 5 11 10 11 6 0 10 5 10 10 0 11 -15 11 -80 0z"/>
</g>
</svg>
